<svg width="42" height="42" viewBox="0 0 42 42" fill="none" xmlns="http://www.w3.org/2000/svg">
<path d="M15.7852 39.1189C15.7852 39.1189 12.6191 34.9972 15.7852 30.0456C18.979 25.0664 25.449 22.1342 27.1009 17.1272C28.6427 12.4799 25.7243 10.3223 25.7243 10.3223" stroke="#52B0D8" stroke-miterlimit="10"/>
<path d="M26.1383 39.1189C26.1383 39.1189 29.3045 34.9972 26.1383 30.0456C22.9446 25.0941 16.4746 22.1342 14.8226 17.1272C13.2808 12.4799 16.1992 10.3223 16.1992 10.3223" stroke="#52B0D8" stroke-miterlimit="10"/>
<path d="M31.2581 9.38161C31.2581 9.87954 30.8451 10.2945 30.3495 10.2945H11.6827C11.1872 10.2945 10.7742 9.87954 10.7742 9.38161C10.7742 8.88369 11.1872 8.46875 11.6827 8.46875H30.3495C30.8451 8.46875 31.2581 8.88369 31.2581 9.38161Z" stroke="#52B0D8" stroke-miterlimit="10"/>
<path d="M31.2312 40.0872C31.2312 40.5851 30.8182 41 30.3226 41H11.6283C11.1327 41 10.7197 40.5851 10.7197 40.0872C10.7197 39.5893 11.1327 39.1743 11.6283 39.1743H30.3226C30.8182 39.1743 31.2312 39.5893 31.2312 40.0872Z" stroke="#52B0D8" stroke-miterlimit="10"/>
<path d="M14.959 31.7329L20.961 28.5793V24.5959" stroke="#52B0D8" stroke-miterlimit="10"/>
<path d="M21.0168 28.5518L26.9913 32.0649" stroke="#52B0D8" stroke-miterlimit="10"/>
<path d="M15.2075 17.9017L20.9617 18.8422L26.9362 17.5144" stroke="#52B0D8" stroke-miterlimit="10"/>
<path d="M12.6203 25.9237C13.4262 25.9237 14.0795 25.2673 14.0795 24.4576C14.0795 23.6479 13.4262 22.9915 12.6203 22.9915C11.8144 22.9915 11.1611 23.6479 11.1611 24.4576C11.1611 25.2673 11.8144 25.9237 12.6203 25.9237Z" stroke="#52B0D8" stroke-miterlimit="10"/>
<path d="M12.6205 22.9915V10.2944" stroke="#52B0D8" stroke-miterlimit="10"/>
<path d="M12.6205 39.1742V25.9238" stroke="#52B0D8" stroke-miterlimit="10"/>
<path d="M29.3313 25.9237C30.1372 25.9237 30.7905 25.2673 30.7905 24.4576C30.7905 23.6479 30.1372 22.9915 29.3313 22.9915C28.5254 22.9915 27.8721 23.6479 27.8721 24.4576C27.8721 25.2673 28.5254 25.9237 29.3313 25.9237Z" stroke="#52B0D8" stroke-miterlimit="10"/>
<path d="M29.3314 22.9915V10.2944" stroke="#52B0D8" stroke-miterlimit="10"/>
<path d="M29.3314 39.1742V25.9238" stroke="#52B0D8" stroke-miterlimit="10"/>
<path d="M9.34223 37.4315C4.30385 33.7801 1 27.8326 1 21.1107C1 9.99032 9.97547 1 21.0158 1C32.0562 1 41.0592 9.99032 41.0592 21.083C41.0592 27.8603 37.7278 33.8631 32.6069 37.4869" stroke="#52B0D8" stroke-miterlimit="10" stroke-linecap="round" stroke-linejoin="round"/>
</svg>
