<svg width="42" height="42" viewBox="0 0 42 42" fill="none" xmlns="http://www.w3.org/2000/svg">
<path d="M14.8275 40.0297C6.79515 37.4421 1 29.8949 1 21C1 9.94879 9.94879 1 21 1C32.0512 1 41 9.94879 41 21C41 29.7332 35.3935 37.1725 27.6038 39.8949" stroke="#52B0D8" stroke-miterlimit="10" stroke-linecap="round" stroke-linejoin="round"/>
<path d="M10.9196 17.604C7.52335 16.7145 4.58534 15.3668 2.34814 13.7495" stroke="#52B0D8" stroke-miterlimit="10" stroke-linecap="round" stroke-linejoin="round"/>
<path d="M39.6255 13.6953C37.4153 15.3395 34.4773 16.6872 31.0811 17.6037" stroke="#52B0D8" stroke-miterlimit="10" stroke-linecap="round" stroke-linejoin="round"/>
<path d="M11.5927 13.5877C8.76247 12.7521 6.33659 11.5661 4.55762 10.1106" stroke="#52B0D8" stroke-miterlimit="10" stroke-linecap="round" stroke-linejoin="round"/>
<path d="M37.6846 9.97559C35.8517 11.485 33.345 12.7519 30.407 13.6144" stroke="#52B0D8" stroke-miterlimit="10" stroke-linecap="round" stroke-linejoin="round"/>
<path d="M13.9379 9.35584C11.3233 8.62808 9.14005 7.496 7.63062 6.12134" stroke="#52B0D8" stroke-miterlimit="10" stroke-linecap="round" stroke-linejoin="round"/>
<path d="M34.6657 6.39087C32.9675 7.81944 30.5147 8.95152 27.6306 9.62537" stroke="#52B0D8" stroke-miterlimit="10" stroke-linecap="round" stroke-linejoin="round"/>
<path d="M20.9998 27.3072C26.5673 27.3072 31.0807 22.7939 31.0807 17.2264C31.0807 11.6589 26.5673 7.14551 20.9998 7.14551C15.4323 7.14551 10.9189 11.6589 10.9189 17.2264C10.9189 22.7939 15.4323 27.3072 20.9998 27.3072Z" stroke="#52B0D8" stroke-miterlimit="10" stroke-linecap="round" stroke-linejoin="round"/>
<path d="M21 28.4934V26.0405" stroke="#52B0D8" stroke-miterlimit="10" stroke-linecap="round" stroke-linejoin="round"/>
<path d="M23.0486 39.0053C23.0486 40.1374 22.1322 41.0808 20.9732 41.0808C19.8411 41.0808 18.8977 40.1643 18.8977 39.0053V30.5686C18.8977 29.4366 19.8141 28.4932 20.9732 28.4932C22.1053 28.4932 23.0486 29.4096 23.0486 30.5686V39.0053Z" stroke="#52B0D8" stroke-miterlimit="10" stroke-linecap="round" stroke-linejoin="round"/>
<path d="M20.9999 26.0404C25.8678 26.0404 29.8139 22.0942 29.8139 17.2264C29.8139 12.3585 25.8678 8.41235 20.9999 8.41235C16.1321 8.41235 12.1859 12.3585 12.1859 17.2264C12.1859 22.0942 16.1321 26.0404 20.9999 26.0404Z" stroke="#52B0D8" stroke-miterlimit="10" stroke-linecap="round" stroke-linejoin="round"/>
<path d="M27.4956 20.5149C25.3662 20.7036 23.156 21.8356 20.8918 21.8356C18.6546 21.8356 16.4713 20.7036 14.3689 20.5149" stroke="#52B0D8" stroke-miterlimit="10" stroke-linecap="round" stroke-linejoin="round"/>
<path d="M27.9802 14.9624C25.6352 15.1511 23.1824 16.2562 20.6757 16.2562C18.3576 16.2562 16.0934 15.1511 13.9102 14.9894" stroke="#52B0D8" stroke-miterlimit="10" stroke-linecap="round" stroke-linejoin="round"/>
<path d="M24.1797 10.4609C23.1015 10.7305 22.0234 10.9461 20.9182 10.9461C19.894 10.9461 18.8428 10.7305 17.8455 10.4609" stroke="#52B0D8" stroke-miterlimit="10" stroke-linecap="round" stroke-linejoin="round"/>
<path d="M30.6493 3.47979C27.9539 5.33963 24.6655 6.44475 21.1345 6.44475C17.5496 6.44475 14.2342 5.31267 11.5118 3.39893" stroke="#52B0D8" stroke-miterlimit="10" stroke-linecap="round" stroke-linejoin="round"/>
</svg>
