<svg width="42" height="42" viewBox="0 0 42 42" fill="none" xmlns="http://www.w3.org/2000/svg">
<path d="M17.6318 32.2321V28.9947C17.6318 28.9947 15.9717 25.5534 13.903 24.9416L7.23713 26.8025L13.903 24.9161L6.59863 21.5512L12.626 22.7238L9.38247 20.1747L12.626 22.7238L16.9678 23.2337L13.6987 19.1296L13.4433 18.8237L7.23713 17.0393L13.4433 18.8237L12.6771 15.9177L13.4433 18.8237C13.4433 18.8237 14.7458 20.4806 15.9462 20.5061C17.121 20.5571 15.4865 14.3882 15.4865 14.3882L11.8343 13.2411L6.93065 12.4763L11.8343 13.2411L9.89327 9.28992L11.8343 13.2666L15.4865 14.4137L15.9973 11.1508L14.2095 6.97021L15.9973 11.1508L17.6574 9.08599L15.9973 11.1508L15.4865 14.4137C15.4865 14.4137 17.453 17.3452 18.4491 17.5236C19.4707 17.7021 20.3135 13.3176 20.3135 13.3176L19.4707 10.0802C19.4707 10.0802 21.0031 16.0196 21.0797 16.2745C21.1563 16.5295 23.5315 13.3176 23.5315 13.3176L23.5826 6.97021C23.5826 6.97021 23.6337 13.1646 23.5315 13.3176C23.4038 13.496 21.4117 17.3962 22.0757 19.1806C22.3822 19.9708 22.5355 19.5884 22.5355 19.5884C22.5355 19.5884 25.7279 16.8863 26.111 15.5863C26.4941 14.2862 27.5413 10.641 27.5413 10.641L26.111 15.5863L29.1247 13.2921L26.111 15.5863L25.2171 18.6452L29.4057 17.1412L23.6848 22.2395L24.1956 23.0043L29.0992 22.4944L33.3899 17.3962L29.0737 22.5454C29.0737 22.5454 35.714 22.316 36.0971 22.2905L29.0737 22.5454C29.0737 22.5454 25.1661 24.8651 25.0639 25.5789C24.9617 26.2671 29.0481 26.4456 30.7848 26.1142L34.8456 24.8141L30.7848 26.1142L35.4841 28.0515L30.7848 26.1142C30.7848 26.1142 27.5157 27.9751 26.6474 28.5614C25.7535 29.1477 24.451 30.3712 24.4765 31.2634C24.5276 32.1556 24.5276 32.2831 24.5276 32.2831" stroke="#52B0D8" stroke-miterlimit="10" stroke-linecap="round" stroke-linejoin="round"/>
<path d="M29.5581 11.0232L30.8351 9.72314" stroke="#52B0D8" stroke-miterlimit="10" stroke-linecap="round" stroke-linejoin="round"/>
<path d="M25.8286 9.36642L26.2628 7.58203" stroke="#52B0D8" stroke-miterlimit="10" stroke-linecap="round" stroke-linejoin="round"/>
<path d="M9.07544 29.3262L10.3524 28.0261" stroke="#52B0D8" stroke-miterlimit="10" stroke-linecap="round" stroke-linejoin="round"/>
<path d="M4.78467 18.9255L6.54692 19.4099" stroke="#52B0D8" stroke-miterlimit="10" stroke-linecap="round" stroke-linejoin="round"/>
<path d="M8.82031 15.1274L10.6081 15.6373" stroke="#52B0D8" stroke-miterlimit="10" stroke-linecap="round" stroke-linejoin="round"/>
<path d="M12.7024 9.54492L13.5452 11.1764" stroke="#52B0D8" stroke-miterlimit="10" stroke-linecap="round" stroke-linejoin="round"/>
<path d="M31.4734 28.6633L32.6993 30.0144" stroke="#52B0D8" stroke-miterlimit="10" stroke-linecap="round" stroke-linejoin="round"/>
<path d="M30.1969 15.1018L32.0358 15.1528" stroke="#52B0D8" stroke-miterlimit="10" stroke-linecap="round" stroke-linejoin="round"/>
<path d="M17.6057 12.9861L17.7334 14.2861" stroke="#52B0D8" stroke-miterlimit="10" stroke-linecap="round" stroke-linejoin="round"/>
<path d="M5.98486 24.432L7.79819 24.1006" stroke="#52B0D8" stroke-miterlimit="10" stroke-linecap="round" stroke-linejoin="round"/>
<path d="M33.3888 20.5825L35.1 19.9197" stroke="#52B0D8" stroke-miterlimit="10" stroke-linecap="round" stroke-linejoin="round"/>
<path d="M21.718 11.2782L21.5903 9.44287" stroke="#52B0D8" stroke-miterlimit="10" stroke-linecap="round" stroke-linejoin="round"/>
<path d="M19.6487 40.9499C17.4778 40.797 14.2343 39.7009 14.2343 39.7009C6.62342 36.9223 1.20898 29.6063 1.20898 21.0667C1.20898 10.1055 10.1224 1.20898 21.1045 1.20898C32.0866 1.20898 41 10.1055 41 21.0667C41 29.1475 36.1474 36.1066 29.2006 39.2165C29.2006 39.2165 25.9315 40.4911 22.9944 40.9754V36.4125H25.6761L21.1045 32.1045L16.7883 36.4125L19.6743 36.387V40.9499" stroke="#52B0D8" stroke-miterlimit="10" stroke-linecap="round" stroke-linejoin="round"/>
</svg>
