<svg width="31" height="28" viewBox="0 0 31 28" fill="none" xmlns="http://www.w3.org/2000/svg">
<path opacity="0.5" d="M20.0631 26.1052H27.4597C29.0129 26.1052 29.9863 24.432 29.2097 23.0948L17.25 2.51901C16.4734 1.18181 14.5302 1.18181 13.7536 2.51901L1.79049 23.0982C1.01389 24.4354 1.98378 26.1086 3.54044 26.1086H10.8957" stroke="#A42BB9" stroke-width="1.5" stroke-miterlimit="10" stroke-linecap="round" stroke-linejoin="round"/>
<path d="M15.5 20.2488C14.713 20.2488 14.071 19.611 14.071 18.8293V10.2266C14.071 9.44487 14.713 8.80713 15.5 8.80713C16.2869 8.80713 16.9289 9.44487 16.9289 10.2266V18.8259C16.9289 19.6076 16.2869 20.2488 15.5 20.2488Z" stroke="#A42BB9" stroke-width="1.5" stroke-miterlimit="10" stroke-linecap="round" stroke-linejoin="round"/>
<path d="M15.5 26.4859C14.5198 26.4859 13.719 25.6905 13.719 24.7167C13.719 23.743 14.5198 22.9475 15.5 22.9475C16.4802 22.9475 17.281 23.743 17.281 24.7167C17.281 25.6905 16.4802 26.4859 15.5 26.4859Z" stroke="#A42BB9" stroke-width="1.5" stroke-miterlimit="10" stroke-linecap="round" stroke-linejoin="round"/>
</svg>
